<?xml version="1.0" encoding="UTF-8"?>
<svg width="160px" height="160px" viewBox="0 0 160 160" version="1.1" xmlns="http://www.w3.org/2000/svg" xmlns:xlink="http://www.w3.org/1999/xlink">
    <title>Global Viral 20</title>
    <defs>
        <rect id="path-1" x="0" y="0" width="160" height="160" rx="17.1428571"></rect>
        <linearGradient x1="50%" y1="0%" x2="50%" y2="100%" id="linearGradient-3">
            <stop stop-color="#7DEABC" offset="0%"></stop>
            <stop stop-color="#47D187" offset="100%"></stop>
        </linearGradient>
    </defs>
    <g id="Design" stroke="none" stroke-width="1" fill="none" fill-rule="evenodd">
        <g id="3100-Playlist-Details" transform="translate(-108.000000, -125.000000)">
            <g id="Global-Viral-20" transform="translate(108.000000, 125.000000)">
                <mask id="mask-2" fill="white">
                    <use xlink:href="#path-1"></use>
                </mask>
                <use id="Mask" fill="#F6FCF9" xlink:href="#path-1"></use>
                <path d="M96.0022643,-28.7540882 C111.647105,-28.7540882 124.374929,-16.0328812 124.374929,-0.39617402 L124.374929,-0.39617402 L124.374929,16.3957988 C124.374929,44.8661228 113.822343,72.1469472 94.6613364,93.2135563 L94.6613364,93.2135563 L80.7940049,108.459895 C80.0374005,109.291727 78.9986031,109.714286 77.955716,109.714286 C77.0355214,109.714286 76.1127708,109.385743 75.3781488,108.717927 C73.811262,107.29441 73.6957265,104.869936 75.1204944,103.304375 L75.1204944,103.304375 L88.9873147,88.0580364 C106.863116,68.4052354 116.707152,42.9546461 116.707152,16.3957988 L116.707152,16.3957988 L116.707152,-0.39617402 C116.707152,-11.8067856 107.419322,-21.0897871 96.0027756,-21.0897871 C84.5862288,-21.0897871 75.2983986,-11.8067856 75.2983986,-0.39617402 L75.2983986,-0.39617402 L75.2983986,14.7648355 C75.2983986,30.8859266 69.3559869,46.3632163 58.5661948,58.3455847 L58.5661948,58.3455847 L46.5796386,71.6574539 C45.162539,73.2296575 42.7388489,73.3584178 41.164805,71.9425659 C39.5907612,70.526203 39.4629564,68.103262 40.8795447,66.5300364 L40.8795447,66.5300364 L52.8661009,53.2181672 C62.3865357,42.6455193 67.6295997,28.9892675 67.6295997,14.7648355 L67.6295997,14.7648355 L67.6295997,-0.39617402 C67.6295997,-16.0328812 80.3574237,-28.7540882 96.0022643,-28.7540882 Z M96.0022643,-45.1045973 C120.667567,-45.1045973 140.733943,-25.0486541 140.733943,-0.39617402 L140.733943,-0.39617402 L140.733943,16.3957988 C140.733943,48.9425091 128.669681,80.1290614 106.764962,104.211828 L106.764962,104.211828 L102.927751,108.431282 C102.171146,109.263114 101.132349,109.685672 100.089462,109.685672 C99.1697784,109.685672 98.2465166,109.356618 97.5118946,108.689313 C95.9450078,107.265797 95.8294723,104.841834 97.2537289,103.275762 L97.2537289,103.275762 L101.091451,99.0563085 C121.710455,76.3878605 133.065655,47.0315434 133.065655,16.3957988 L133.065655,16.3957988 L133.065655,-0.39617402 C133.065655,-20.8225585 116.439274,-37.4402962 96.0022643,-37.4402962 C75.5652551,-37.4402962 58.9388736,-20.8225585 58.9388736,-0.39617402 L58.9388736,-0.39617402 L58.9388736,14.7648355 C58.9388736,26.8396865 54.4881994,38.4327084 46.4063353,47.4076051 L46.4063353,47.4076051 L35.6134759,59.3935501 C34.1968876,60.9657538 31.772175,61.094514 30.1986423,59.6786621 C28.6245985,58.2622993 28.4967937,55.8393582 29.913382,54.2661327 L29.913382,54.2661327 L40.7062414,42.2801876 C47.5187482,34.7150114 51.2705858,24.9430275 51.2705858,14.7648355 L51.2705858,14.7648355 L51.2705858,-0.39617402 C51.2705858,-25.0486541 71.3369612,-45.1045973 96.0022643,-45.1045973 Z M96.0022643,-12.4035791 C102.626643,-12.4035791 108.015915,-7.0171083 108.015915,-0.39617402 L108.015915,-0.39617402 L108.015915,16.3957988 C108.015915,40.7897365 98.9739814,64.1648331 82.5556662,82.2152842 L82.5556662,82.2152842 L66.1209919,100.284641 C65.3643875,101.116473 64.3255901,101.539031 63.282703,101.539031 C62.3625084,101.539031 61.4397578,101.210488 60.7051359,100.542672 C59.1382491,99.1191558 59.0227135,96.6946819 60.4469702,95.1291206 L60.4469702,95.1291206 L76.8821557,77.0597643 C92.0142435,60.4231213 100.347627,38.8792817 100.347627,16.3957988 L100.347627,16.3957988 L100.347627,-0.39617402 C100.347627,-2.79101265 98.3983486,-4.739278 96.0022643,-4.739278 C93.60618,-4.739278 91.6569013,-2.79101265 91.6569013,-0.39617402 L91.6569013,-0.39617402 L91.6569013,14.7648355 C91.6569013,34.9316557 84.2232631,54.2932132 70.7255431,69.2835643 L70.7255431,69.2835643 L53.8650232,88.007963 C52.4479236,89.5811885 50.0237222,89.7089269 48.4501896,88.293075 C46.8761457,86.8767121 46.7483409,84.4537711 48.1649293,82.8805455 L48.1649293,82.8805455 L65.0254492,64.1561469 C77.2543232,50.5760272 83.9886135,33.0349966 83.9886135,14.7648355 L83.9886135,14.7648355 L83.9886135,-0.39617402 C83.9886135,-7.0171083 89.3778862,-12.4035791 96.0022643,-12.4035791 Z M144.887087,51.7108547 C145.423868,49.6639753 147.517821,48.4402419 149.567299,48.9736773 C151.615243,49.5096674 152.841658,51.6040654 152.3059,53.6509448 C150.812118,59.3552286 148.953836,65.0252786 146.781666,70.5052539 C146.185073,72.0095008 144.741901,72.9266621 143.215912,72.9266621 C142.74559,72.9266621 142.268112,72.8398001 141.804436,72.6563678 C139.835731,71.8771638 138.872083,69.6499179 139.652203,67.6822363 C141.710883,62.4899278 143.471522,57.1162308 144.887087,51.7108547 Z M38.7457158,10.932685 C40.8631857,10.932685 42.5798597,12.6479556 42.5798597,14.7648355 C42.5798597,22.7939574 39.6204119,30.5016896 34.2474983,36.4691145 L34.2474983,36.4691145 L24.6473132,47.1306683 C23.8907088,47.9711867 22.8452656,48.3993656 21.7962438,48.3993656 C20.8821839,48.3993656 19.9655679,48.0749102 19.2324796,47.4157803 C17.6584358,45.9994175 17.530631,43.5764764 18.9472193,42.0037618 L18.9472193,42.0037618 L28.5474044,31.341697 C32.651472,26.7839926 34.911572,20.8972984 34.911572,14.7648355 C34.911572,12.6479556 36.628246,10.932685 38.7457158,10.932685 Z M131.39039,-45.5159148 C132.805956,-47.0896513 135.230157,-47.2194335 136.805223,-45.8035816 C149.698171,-34.2192459 157.092957,-17.668954 157.092445,-0.39617402 L157.092445,-0.39617402 L157.092445,16.3952879 C157.092445,23.11688 156.628258,29.8911003 155.713176,36.5299179 C155.448876,38.4490589 153.805306,39.8398741 151.91993,39.8398741 C151.745604,39.8398741 151.569233,39.8281222 151.39184,39.8035964 C149.294308,39.5149077 147.828131,37.58146 148.11697,35.4845073 C148.984509,29.1910941 149.424158,22.7689207 149.424158,16.3957988 L149.424158,16.3957988 L149.424158,-0.39617402 C149.424158,-15.4984239 142.956213,-29.9711793 131.678206,-40.1044073 C130.103651,-41.5192373 129.974824,-43.9421783 131.39039,-45.5159148 Z M39.6613094,-53.4612404 C41.1136831,-55.000743 43.5404406,-55.0727874 45.0812552,-53.6206578 C46.6220698,-52.1685282 46.6931293,-49.7435434 45.2407556,-48.2035298 C32.9755849,-35.2012984 26.2208459,-18.2233385 26.2208459,-0.39617402 L26.2208459,-0.39617402 L26.2208459,14.7648355 C26.2208459,18.7472064 24.7531356,22.5706708 22.08815,25.5311348 L22.08815,25.5311348 L17.360395,30.7811811 C16.6032794,31.6216995 15.5583474,32.0493675 14.5093256,32.0493675 C13.5952657,32.0493675 12.6781385,31.7249121 11.9455614,31.0652712 C10.3715175,29.6494193 10.2437127,27.2264782 11.6603011,25.6532527 L11.6603011,25.6532527 L16.3880561,20.4032064 C17.7836845,18.8534847 18.5525581,16.8510583 18.5525581,14.7648355 L18.5525581,14.7648355 L18.5525581,-0.39617402 C18.5525581,-20.1853996 26.0490762,-39.0314051 39.6613094,-53.4612404 Z M96.0022643,-77.8056156 C138.707981,-77.8056156 173.451459,-43.079689 173.451459,-0.39617402 L173.451459,-0.39617402 L173.451459,16.3952879 C173.451459,18.5121678 171.734785,20.2274384 169.617315,20.2274384 C167.499846,20.2274384 165.783172,18.5121678 165.783172,16.3952879 L165.783172,16.3952879 L165.783172,-0.396684974 C165.783172,-38.8546152 134.479176,-70.1418254 96.0017531,-70.1418254 C94.7078574,-70.1418254 93.3991363,-70.1060586 92.1113751,-70.0350361 C89.9954389,-69.9093416 88.1887903,-71.5367282 88.0717212,-73.6500315 C87.9551632,-75.7628238 89.5747056,-77.570577 91.6891081,-77.6870744 C93.1169433,-77.7657612 94.5677833,-77.8056156 96.0022643,-77.8056156 Z M87.2767753,-60.8332761 C89.3707291,-61.1321839 91.3159181,-59.6800543 91.6170262,-57.5851453 C91.9181343,-55.4907473 90.4632045,-53.5481024 88.3672058,-53.2471509 C75.7850793,-51.4404196 64.2115882,-45.1362765 55.7790278,-35.4961185 C47.2672284,-25.7655218 42.5798597,-13.3003024 42.5798597,-0.39617402 C42.5798597,1.72070595 40.8631857,3.43597655 38.7457158,3.43597655 C36.628246,3.43597655 34.911572,1.72070595 34.911572,-0.39617402 C34.911572,-15.1560852 40.2722163,-29.4132181 50.0058296,-40.5402505 C59.644356,-51.5594718 72.8808431,-58.7659587 87.2767753,-60.8332761 Z M96.0022643,-94.1561247 C100.506105,-94.1561247 105.03653,-93.8316692 109.467778,-93.1929775 C111.563776,-92.8904931 113.017172,-90.9478482 112.714531,-88.8529392 C112.411889,-86.7580302 110.469256,-85.301813 108.371724,-85.6073632 C104.30293,-86.1939377 100.141095,-86.4918235 96.0022643,-86.4918235 C73.7136192,-86.4918235 52.5563021,-77.9798507 36.4278481,-62.524021 C20.3479599,-47.1146881 10.9445942,-26.4410022 9.95027293,-4.31058809 C9.85774226,-2.25502252 8.16100579,-0.650628818 6.12277491,-0.650628818 C6.06449592,-0.650628818 6.00621694,-0.651650725 5.94742673,-0.654716446 C3.83251297,-0.749242826 2.19456671,-2.54064548 2.28965348,-4.65497069 C3.37343814,-28.7612416 13.6126472,-51.2774255 31.1208817,-68.0561135 C48.6838168,-84.8869189 71.725999,-94.1561247 96.0022643,-94.1561247 Z M159.660299,-64.0032311 C161.219518,-65.4354335 163.644742,-65.3322209 165.077689,-63.773813 C174.053164,-54.0089824 180.736333,-42.7245764 184.941622,-30.2338093 C185.616942,-28.2283172 184.537247,-26.0552323 182.530712,-25.3802629 C182.125315,-25.2438383 181.712761,-25.1789472 181.307365,-25.1789472 C179.706737,-25.1789472 178.212955,-26.1891021 177.67413,-27.7899192 C173.813403,-39.2567356 167.675194,-49.6188707 159.430762,-58.5881469 C157.998326,-60.1470657 158.101081,-62.5710287 159.660299,-64.0032311 Z M100.38648,-57.5856563 C100.687588,-59.6800543 102.627665,-61.1326948 104.726731,-60.8337871 C110.782122,-59.9646554 116.653474,-58.1911361 122.177709,-55.5622808 C124.089157,-54.6527837 124.901485,-52.3657562 123.991003,-50.4553015 C123.334087,-49.0762382 121.959418,-48.2694428 120.526471,-48.2694428 C119.973843,-48.2694428 119.413036,-48.3890059 118.880856,-48.6424388 C114.054947,-50.9386634 108.926397,-52.4878741 103.6363,-53.2476618 C101.540302,-53.5486134 100.085372,-55.4912583 100.38648,-57.5856563 Z M75.0085374,-74.916685 C77.0457458,-75.4889528 79.1647493,-74.3045628 79.7393597,-72.2679025 C80.3139701,-70.2312422 79.1274303,-68.1138513 77.0891994,-67.5395396 C69.6504491,-65.4430978 62.6447014,-62.1331416 56.2657085,-57.6995989 C55.5985674,-57.2361641 54.8353172,-57.0133885 54.0802465,-57.0133885 C52.8671233,-57.0133885 51.6739378,-57.5871891 50.9290914,-58.6591694 C49.720058,-60.396411 50.1494822,-62.7846072 51.8881386,-63.993012 C58.9685243,-68.9134934 66.7472354,-72.5887812 75.0085374,-74.916685 Z M53.9243246,-102.16021 C55.8792268,-102.972115 58.123479,-102.043201 58.9347838,-100.088294 C59.7460887,-98.133386 58.8177146,-95.8913224 56.86179,-95.0804394 C40.5733244,-88.3281901 26.1876166,-77.3861228 15.2603066,-63.4360728 C14.5042134,-62.4708818 13.3774863,-61.9665708 12.2390012,-61.9665708 C11.4118486,-61.9665708 10.5790725,-62.2327775 9.87767981,-62.7815415 C8.21059405,-64.0860056 7.91715424,-66.4946399 9.22280804,-68.1618809 C20.9619341,-83.1476334 36.4196686,-94.9041604 53.9243246,-102.16021 Z M121.433885,-86.7524098 C122.11943,-88.7553471 124.300291,-89.8227288 126.302737,-89.1375403 C135.513373,-85.9880234 144.159111,-81.4252095 151.99968,-75.5778587 C153.696416,-74.3122271 154.04609,-71.9107461 152.779289,-70.2148917 C152.026263,-69.2062697 150.87193,-68.6743672 149.703283,-68.6743672 C148.905781,-68.6743672 148.101634,-68.9216686 147.413021,-69.4351768 C140.212499,-74.806319 132.274799,-78.9951151 123.820256,-81.8866004 C121.816788,-82.571278 120.74834,-84.7499833 121.433885,-86.7524098 Z M96.0022643,-110.506634 C111.240175,-110.506634 126.005718,-107.439891 139.888386,-101.391225 C153.291531,-95.5515384 165.249459,-87.2194212 175.429366,-76.6278679 C176.896565,-75.1021611 176.847488,-72.6761543 175.320477,-71.209718 C174.577164,-70.4959161 173.620162,-70.1413144 172.664693,-70.1413144 C171.65708,-70.1413144 170.652023,-70.5357704 169.898997,-71.319062 C150.361222,-91.6468325 124.117275,-102.842333 96.0022643,-102.842333 C88.0221329,-102.842333 80.0731858,-101.918018 72.3752474,-100.09698 C70.3150341,-99.6090194 68.2486861,-100.883337 67.7604718,-102.942479 C67.2727687,-105.001622 68.5472381,-107.066895 70.6079626,-107.554345 C78.88409,-109.51334 87.4280962,-110.506634 96.0022643,-110.506634 Z M137.694234,-115.800111 C138.477933,-117.765749 140.707359,-118.725319 142.675042,-117.942028 C146.884421,-116.266612 151.050346,-114.340828 155.056771,-112.218839 C156.927833,-111.227589 157.640472,-108.908371 156.649218,-107.038282 C155.961117,-105.739949 154.632459,-104.999578 153.258302,-104.999578 C152.653018,-104.999578 152.038533,-105.143156 151.466478,-105.446662 C147.703394,-107.439891 143.791034,-109.248666 139.838287,-110.821892 C137.871115,-111.604673 136.911046,-113.833962 137.694234,-115.800111 Z M96.0022643,-126.857143 C106.0012,-126.857143 115.961795,-125.680928 125.606456,-123.3612 C127.665647,-122.866086 128.932959,-120.796214 128.437588,-118.738604 C127.942216,-116.680995 125.870756,-115.415874 123.813099,-115.909455 C114.754806,-118.08816 105.39745,-119.192842 96.0022643,-119.192842 C77.9730974,-119.192842 60.6463456,-115.243172 44.5030663,-107.452665 C43.9662861,-107.193101 43.3983216,-107.070472 42.8390478,-107.070472 C41.4137688,-107.070472 40.0447238,-107.868581 39.3837174,-109.237425 C38.4630116,-111.143282 39.2625584,-113.434397 41.169406,-114.354624 C58.3606847,-122.650974 76.8090513,-126.857143 96.0022643,-126.857143 Z" id="Combined-Shape" fill="url(#linearGradient-3)" mask="url(#mask-2)" transform="translate(93.714286, -8.571429) rotate(-315.000000) translate(-93.714286, 8.571429) "></path>
                <text mask="url(#mask-2)" font-family=".AppleSystemUIFont" font-size="18.2857143" font-weight="normal" fill="#47D187">
                    <tspan x="17.1428571" y="117.428571">Global </tspan>
                    <tspan x="17.1428571" y="139.428571">Viral 20</tspan>
                </text>
            </g>
        </g>
    </g>
</svg>