<?xml version="1.0" encoding="UTF-8"?>
<svg width="375px" height="235px" viewBox="0 0 375 235" version="1.1" xmlns="http://www.w3.org/2000/svg" xmlns:xlink="http://www.w3.org/1999/xlink">
    <title>Path</title>
    <g id="Design" stroke="none" stroke-width="1" fill="none" fill-rule="evenodd" opacity="0.049999997">
        <g id="3100-Playlist-Details" transform="translate(0.000000, -0.000000)" fill="#00B3F3">
            <g id="Header" transform="translate(-14.000000, -40.000000)">
                <path d="M447.272456,147.397669 C356.018982,163.405589 282.05795,198.199653 225.40694,251.783113 C213.028571,263.491215 207.135035,270.169766 206.760505,272.985193 C206.501072,274.935413 208.154034,275.383412 210.905321,274.699779 C213.180841,274.134363 216.554933,272.778719 221.118433,270.624454 C228.79973,266.998388 238.83774,261.660493 257.125248,251.60575 C258.155991,251.039032 275.341045,241.570032 280.710431,238.625312 C290.315364,233.3577 298.515379,228.908789 306.490665,224.653708 C315.138563,220.039766 323.246743,215.803287 331.019447,211.850105 C382.328365,185.754491 418.26337,172.44423 437.821544,174.704325 C447.92698,175.872085 453.006685,177.612609 453.549957,179.650097 C454.02237,181.421836 450.953949,184.126487 444.278625,187.640233 C438.551413,190.654913 430.985414,193.954046 417.421976,199.496617 C416.581513,199.840064 404.041942,204.940944 400.178194,206.528206 C393.247611,209.375351 387.419897,211.824434 381.841267,214.252014 C351.073862,227.640663 330.484185,239.396974 318.904949,251.814227 C313.015983,258.129392 310.97373,261.901809 312.902832,263.66689 C314.532188,265.157711 318.820239,264.499913 326.007501,262.044415 C337.012793,258.284503 350.948081,251.971462 381.641672,237.308714 L382.329028,236.980336 C426.726218,215.768888 441.811501,209.19731 447.854283,209.653725 L447.959678,208.25983 C441.512841,207.772896 426.848389,214.161148 381.72583,235.719152 L381.038527,236.047505 C350.407778,250.680232 336.485612,256.987329 325.555111,260.721689 C318.972442,262.97063 314.896516,263.595887 313.847242,262.635828 C312.863202,261.735456 314.659724,258.416951 319.928093,252.767297 C331.335175,240.534657 351.802482,228.848217 382.39959,215.533674 C387.968239,213.110438 393.787527,210.664895 400.709906,207.821121 C404.57097,206.234961 417.108811,201.134785 417.951284,200.790517 C431.557239,195.230571 439.149408,191.920027 444.930363,188.877058 C452.262973,185.017331 455.635795,182.044367 454.901412,179.290134 C454.13233,176.405772 448.743189,174.559222 437.982182,173.315706 C418.032483,171.010366 381.973314,184.366618 330.385134,210.604264 C322.603739,214.561866 314.487572,218.802518 305.832023,223.420542 C297.851401,227.67847 289.64689,232.129821 280.037612,237.399815 C274.666768,240.345334 257.480776,249.814852 256.451122,250.380971 C238.190234,260.421077 228.166781,265.751232 220.521114,269.360478 C216.035413,271.478017 212.730668,272.805799 210.56788,273.343203 C208.631303,273.8244 208.079685,273.674896 208.146926,273.169427 C208.455814,270.847444 214.361851,264.154727 226.368294,252.798412 C282.916258,199.312417 356.796691,164.606767 448.027273,148.684729 L448.541477,148.594987 L451.844568,120.138914 L451.19945,120.021682 C437.483938,117.529268 427.493356,116.778146 417.701884,117.666931 C406.240637,118.707283 394.63592,122.04771 378.190634,128.896651 C365.38673,134.229072 366.637475,133.642503 314.037173,158.659745 C310.075502,160.543957 306.034064,162.608226 301.91144,164.848267 C285.163775,173.948166 267.508477,185.671748 247.994307,200.233234 C234.011994,210.666843 190.513488,245.587477 183.96974,250.144071 C177.193701,254.862414 173.452938,256.38387 172.733747,255.096818 C171.761081,253.356152 173.940465,247.168597 179.704957,236.192053 C190.160273,216.283407 224.522909,190.063213 289.232279,149.046627 C294.976733,145.405456 301.038143,141.593772 308.026807,137.222963 C313.824986,133.596699 334.587792,120.65977 338.844729,117.999606 C350.681243,110.602954 359.745045,104.881983 368.130211,99.4931279 C389.083338,86.02728 404.459553,75.4583995 415.95944,66.4130971 C429.297715,55.9218 437.133326,47.6661181 439.320697,41.327779 C441.815657,34.0981369 437.051477,29.4322541 424.938049,27.5165729 C408.73415,24.9540032 386.804886,33.5103446 358.873959,52.0736822 C335.858709,67.3699826 309.793908,88.6105324 275.799786,118.942664 C269.327738,124.717516 262.551827,130.833213 254.792845,137.891567 C250.721561,141.595219 246.585107,145.370556 241.048316,150.432987 C239.449179,151.895119 232.979036,157.81284 234.241593,156.658152 C231.496781,159.168456 229.472195,161.019234 227.49087,162.828939 C216.645274,172.735094 208.77319,179.871663 201.232824,186.607909 C181.999729,203.789949 167.075756,216.387622 154.222774,226.073207 C123.53071,249.201738 105.673703,254.673881 99.590265,240.826796 C96.8761696,234.648988 96.8856883,228.267668 99.4492082,221.591283 C103.176037,211.885198 112.2187,201.655325 126.364245,190.390483 C137.647001,181.405431 150.87533,172.609864 171.391581,160.000583 C175.061373,157.745129 187.444476,150.191646 188.976505,149.253388 C195.79649,145.076635 201.918604,139.888309 206.673501,136.838915 C218.642464,129.16302 276.35252,74.9250598 282.820963,69.1955735 C298.57737,55.2391837 300.614081,44.1933827 286.384108,35.3506149 C264.927303,22.0169598 246.65903,24.1108019 226.896746,40.0453267 C216.385092,48.5209774 156.397839,109.618919 139.369873,130.780891 C137.156423,133.531717 129.210247,143.461922 129.062984,143.645615 C124.806362,148.955227 121.46834,153.083152 118.12807,157.152613 C109.520633,167.639079 101.776168,176.640305 93.8653585,185.231674 C90.038573,189.387675 86.2172777,193.396057 82.368798,197.282133 C66.3468755,213.460579 51.4190256,222.70726 38.4347362,225.456669 C27.477844,227.77678 18.4312303,225.264071 12.8379092,219.155759 C7.71815899,213.56462 6.18840506,205.56189 8.87780752,198.353941 C11.8311605,190.438571 19.3644838,184.458532 30.5526549,182.145434 C53.3058967,177.441314 75.694709,157.466426 97.7188989,126.538501 C104.890729,116.467309 111.596407,105.84157 118.377223,94.1509272 C121.639361,88.5267525 129.483083,74.4338057 130.321183,73.0208289 C136.771497,62.1460597 155.122013,47.3789364 185.331632,28.8022072 C193.154534,24.9759401 198.399146,21.6636744 201.033037,18.8595437 C203.87619,15.8326254 203.796511,13.1302685 200.692984,11.2506455 C192.374841,6.21283716 159.848116,26.8879968 124.356224,58.8655003 C116.847124,65.6310527 110.7033,71.8363753 104.773715,78.4585467 C101.621078,81.9794186 92.8332828,92.3275657 91.8238864,93.4764385 C87.0217351,98.9421416 83.0421555,102.86376 78.190981,106.706993 C72.4659162,111.242546 65.610847,115.536063 56.673875,120.086568 C41.1769679,127.977245 23.5133529,127.289665 11.5278456,121.02093 C7.17998449,118.746885 4.90080392,116.182108 5.52203799,114.871914 C6.26402004,113.30706 10.7540382,112.890229 18.3963611,114.368406 C34.8460567,117.550103 49.9048288,114.032759 64.1804945,104.51627 C76.2413463,96.4762269 87.4856127,84.4379005 99.5182317,67.6695413 C104.463094,60.7785036 110.750367,53.6789731 118.609829,45.8391119 C123.940427,40.5218081 141.221942,24.4599746 143.764019,21.8748732 C147.009177,18.5747912 148.842077,16.2803397 149.433298,14.6110913 C150.225257,12.3750828 148.862667,11.1494632 145.80378,11.1494632 C138.578611,11.1494632 130.803478,16.2621861 118.300978,28.6065082 C111.264633,35.5538318 76.7636718,72.6594457 69.8835251,79.8703409 C51.5432087,99.092329 28.5359624,103.91637 10.9149319,97.3930216 C4.6378964,95.0692476 0.858736282,91.5895462 1.46153462,89.2604383 C2.13528895,86.6571689 8.03934861,85.396225 18.4463183,86.6381811 C42.075258,89.4580321 63.7046355,75.7682364 88.4482093,48.2370476 C91.4761727,44.8679534 94.4980546,41.3638268 98.0838967,37.0969085 C99.6106273,35.2801985 105.328533,28.4137575 106.659741,26.8314841 C113.127318,19.1441241 117.027895,14.9624185 120.355826,12.4022639 C124.738146,9.03097565 127.370043,5.75871561 127.786487,3.32922884 C128.249072,0.630559452 126.055997,-0.569416376 122.565178,0.257888212 C114.44559,2.18218547 101.332565,12.9037723 87.2096176,30.9973141 C65.9594587,58.2218475 41.602986,65.0539107 13.9401976,51.5916532 L13.3279107,52.8484543 C41.6099797,66.6120884 66.6714644,59.5822671 88.3123629,31.8571399 C102.257671,13.9911792 115.146838,3.45262554 122.887874,1.61804307 C125.540051,0.989491913 126.663207,1.6040444 126.40795,3.09318411 C126.065229,5.09257578 123.631807,8.11807074 119.50274,11.2945329 C116.066776,13.9377968 112.123285,18.1655094 105.589271,25.9318365 C104.255109,27.5176209 98.536873,34.3844586 97.012929,36.1978526 C93.4362449,40.4538736 90.4239013,43.9469397 87.4077247,47.3029192 C62.9437859,74.5229692 41.6511671,87.9996216 18.61214,85.25017 C7.54032622,83.9288723 1.03729198,85.3177405 0.107480396,88.9103706 C-0.745084945,92.2045347 3.54619959,96.1557801 10.4291348,98.7038596 C28.5636698,105.417309 52.1619883,100.469335 70.8956935,80.8350464 C77.7944868,73.6046083 112.272683,36.5234784 119.283904,29.6009605 C131.53228,17.5075473 139.075486,12.5473336 145.80378,12.5473336 C148.021381,12.5473336 148.521312,12.9970111 148.114848,14.1446185 C147.616546,15.5515214 145.865128,17.7439717 142.766517,20.8950261 C140.252421,23.4516735 122.977539,39.5073423 117.621824,44.8497 C109.712664,52.7391354 103.377809,59.8923955 98.3816918,66.85486 C72.5990676,102.784885 48.5960896,118.785826 18.6620972,112.995999 C10.3903974,111.396088 5.40284764,111.859107 4.25815623,114.273283 C3.16765517,116.57317 5.91200584,119.661405 10.8793639,122.259464 C23.251903,128.730627 41.3916737,129.436742 57.3087623,121.332117 C66.324497,116.741508 73.2575162,112.399169 79.0597738,107.802462 C83.9844936,103.900964 88.0214701,99.9227846 92.8748269,94.3988005 C93.896427,93.2360377 102.6784,82.8947457 105.815924,79.3907531 C111.713181,72.8046853 117.821975,66.6347434 125.292693,59.9037728 C160.104026,28.5394396 192.519546,7.93496595 199.968159,12.4461513 C202.243255,13.8240428 202.291989,15.4768634 200.013345,17.9027855 C197.525439,20.5514951 192.398043,23.7897327 184.657557,27.579241 C154.201419,46.3037766 135.72157,61.1749775 129.118084,72.3079831 C128.26787,73.7413831 120.419614,87.8424754 117.167219,93.4498534 C110.406568,105.105732 103.723136,115.696219 96.5794186,125.727933 C74.7434645,156.391524 52.5820943,176.163493 30.2693395,180.776543 C18.6281255,183.183306 10.6962014,189.479759 7.56734172,197.86551 C4.69505374,205.563616 6.33060511,214.119813 11.8061554,220.099511 C17.7489477,226.589471 27.3021406,229.242883 38.7246175,226.824186 C52.0064814,224.011765 67.1633752,214.623209 83.3628325,198.265494 C87.2235275,194.367083 91.0564902,190.346462 94.894498,186.178274 C102.825181,177.565321 110.586328,168.544706 119.209381,158.039215 C122.553616,153.964924 125.894757,149.833141 130.154457,144.51969 C130.302772,144.334686 138.247722,134.406012 140.459767,131.656933 C157.425912,110.57179 217.366479,49.5257267 227.774927,41.1332923 C247.095434,25.5549762 264.721008,23.5347979 285.645616,36.5377362 C298.885736,44.7653907 297.049336,54.7248286 281.893322,68.1494149 C275.490292,73.8209613 217.831486,128.022217 205.918182,135.662417 C201.172923,138.70563 195.058211,143.889348 188.245765,148.061484 C186.715605,148.998598 174.33118,156.552887 170.65896,158.809833 C150.097456,171.446927 136.831541,180.267485 125.492682,189.297215 C111.169259,200.703711 101.979422,211.100079 98.1434381,221.090447 C95.4521559,228.099574 95.4420694,234.861612 98.3096584,241.388801 C104.982649,256.577822 123.661551,250.853815 155.064783,227.189372 C167.955125,217.475634 182.905263,204.855874 202.164897,187.650126 C209.709868,180.909766 217.585313,173.770149 228.434383,163.86082 C230.415972,162.050876 232.440757,160.199915 235.185771,157.689426 C233.923305,158.844031 240.393322,152.926426 241.992361,151.464383 C247.528358,146.402678 251.664028,142.628057 255.734282,138.925342 C263.490185,131.869789 270.262885,125.756989 276.731231,119.985441 C310.679761,89.6939902 336.70125,68.4887352 359.648408,53.2376899 C387.308332,34.8544654 408.962652,26.4054012 424.719464,28.8972662 C436.091227,30.6956565 440.141473,34.6623349 437.998514,40.8719815 C435.92839,46.8705736 428.22586,54.9860401 415.094483,65.3146008 C403.637212,74.3263835 388.292545,84.8735793 367.373768,98.3173514 C358.99445,103.702448 349.935192,109.420551 338.103259,116.81434 C333.847441,119.473806 313.084341,132.410917 307.284899,136.037971 C300.294016,140.410168 294.230305,144.223299 288.483214,147.866141 C223.502279,189.054861 189.090591,215.312484 178.466561,235.542389 C172.39311,247.107239 170.179358,253.392373 171.512656,255.778419 C172.938083,258.329337 177.081878,256.643958 184.769255,251.291025 C191.360431,246.701406 234.884137,211.760542 248.83104,201.353354 C268.295996,186.828593 285.898741,175.139907 302.579458,166.076384 C306.680587,163.848022 310.699747,161.795133 314.638153,159.921986 C367.197059,134.924433 365.957839,135.505597 378.728593,130.186982 C395.053766,123.388063 406.529898,120.08465 417.828386,119.059072 C427.323997,118.197143 437.03448,118.90218 450.304047,121.280553 L447.272456,147.397669 Z" id="Ornament"></path>
            </g>
        </g>
    </g>
</svg>