<?xml version="1.0" encoding="UTF-8"?>
<svg width="24px" height="25px" viewBox="0 0 24 25" version="1.1" xmlns="http://www.w3.org/2000/svg" xmlns:xlink="http://www.w3.org/1999/xlink">
    <title>切片</title>
    <g id="Design" stroke="none" stroke-width="1" fill="none" fill-rule="evenodd">
        <g id="3000-Homescreen" transform="translate(-273.000000, -73.000000)" fill="#FFFFFF">
            <g id="Navigation-Bar" transform="translate(0.000000, 44.000000)">
                <g id="Notifications" transform="translate(273.000000, 24.000000)">
                    <g id="Icons/Bell" transform="translate(0.000000, 5.272727)">
                        <path d="M14.8712222,6.96671617 L17.0968395,10.8772394 L20.6780159,12.6734976 C21.092048,12.8811692 21.1108458,13.4731363 20.7108475,13.7074087 L6.68803909,21.9203388 C6.28804079,22.1546113 5.79207553,21.8421135 5.8218017,21.3745399 L6.0789186,17.3302558 L3.85330131,13.4197326 C2.09670455,10.3333025 3.13914712,6.3866995 6.18166196,4.60474821 C9.22417679,2.82279691 13.1146254,3.88028599 14.8712222,6.96671617 Z M16.7054685,17.5991909 C16.7966126,18.7691703 16.177159,19.9869373 15.0317708,20.6578098 C13.8863827,21.3286824 12.5371024,21.264035 11.583915,20.5989684 L16.7054685,17.5991909 Z M8.0167071,2.45616943 C7.08328194,2.64654468 6.15586229,2.99519921 5.27484023,3.51122823 C4.39295594,4.02776226 3.63098739,4.66899098 3.00140297,5.39476168 C2.96657647,4.26751052 3.58160536,3.11744565 4.68251487,2.47262498 C5.78308965,1.82800035 7.07191411,1.86246699 8.0167071,2.45616943 Z" id="Shape"></path>
                    </g>
                </g>
            </g>
        </g>
    </g>
</svg>