<?xml version="1.0" encoding="UTF-8"?>
<svg width="24px" height="24px" viewBox="0 0 24 24" version="1.1" xmlns="http://www.w3.org/2000/svg" xmlns:xlink="http://www.w3.org/1999/xlink">
    <title>iconspace_Inbox_25px</title>
    <g id="Design" stroke="none" stroke-width="1" fill="none" fill-rule="evenodd">
        <g id="3110-Playlist-Played" transform="translate(-291.000000, -391.000000)">
            <g id="Save" transform="translate(281.000000, 381.000000)">
                <g id="iconspace_Inbox_25px" transform="translate(22.000000, 22.000000) rotate(-360.000000) translate(-22.000000, -22.000000) translate(10.000000, 10.000000)">
                    <polygon id="Path" points="0 0 24 0 24 24 0 24"></polygon>
                    <path d="M19.7158984,13.2 C20.1135435,13.2 20.4358984,13.522355 20.4358984,13.92 L20.4358984,16.8 C20.4358984,18.7803529 18.9784969,20.4 17.1558984,20.4 L6.91589844,20.4 C5.09329998,20.4 3.63589844,18.7803529 3.63589844,16.8 L3.63589844,13.92 C3.63589844,13.522355 3.95825342,13.2 4.35589844,13.2 C4.75354346,13.2 5.07589844,13.522355 5.07589844,13.92 L5.07589844,16.8 C5.07589844,18.0020108 5.91268945,18.96 6.91589844,18.96 L17.1558984,18.96 C18.1591074,18.96 18.9958984,18.0020108 18.9958984,16.8 L18.9958984,13.92 C18.9958984,13.522355 19.3182534,13.2 19.7158984,13.2 Z M12.0358984,3.6 C12.4335435,3.6 12.7558984,3.92235498 12.7558984,4.32 L12.7558984,13.1378022 L14.4073938,11.4902716 C14.688909,11.2094323 15.1447874,11.2099801 15.4256268,11.4914953 C15.7064662,11.7730105 15.7059183,12.228889 15.4244031,12.5097284 L12.5444124,15.3828051 C12.2634168,15.6631566 11.8084541,15.6631998 11.5273938,15.3828143 L8.64739378,12.5097284 C8.36587857,12.228889 8.3653307,11.7730105 8.64617007,11.4914953 C8.92700943,11.2099801 9.38288789,11.2094323 9.6644031,11.4902716 L11.3158984,13.1378022 L11.3158984,4.32 C11.3158984,3.92235498 11.6382534,3.6 12.0358984,3.6 Z" id="Combined-Shape" fill="#0041C4"></path>
                </g>
            </g>
        </g>
    </g>
</svg>