<?xml version="1.0" encoding="UTF-8"?>
<svg width="26px" height="26px" viewBox="0 0 26 26" version="1.1" xmlns="http://www.w3.org/2000/svg" xmlns:xlink="http://www.w3.org/1999/xlink">
    <title>Component/Tab Bar/Item/Normal Copy</title>
    <g id="Design" stroke="none" stroke-width="1" fill="none" fill-rule="evenodd">
        <g id="画板" transform="translate(-45.000000, -54.000000)" fill="#C1C7D0">
            <g id="Component/Icon/Home" transform="translate(45.440000, 54.400000)">
                <path d="M12.1096296,17.1 C10.9584228,17.1 10.0251852,18.040202 10.0251852,19.2 L10.0251852,22.4 C10.0251852,22.7865993 10.3362644,23.1 10.72,23.1 L14.2933333,23.1 C14.677069,23.1 14.9881481,22.7865993 14.9881481,22.4 L14.9881481,19.2 C14.9881481,18.040202 14.0549106,17.1 12.9037037,17.1 L12.1096296,17.1 Z" id="Path"></path>
                <path d="M15.9807407,22.4823529 L15.9807407,19.1882353 C15.9807407,17.48265 14.4331668,16.1 12.7402169,16.1 L12.2731165,16.1 C10.5801665,16.1 9.03259259,17.48265 9.03259259,19.1882353 L9.03259259,22.4823529 C9.03259259,22.6989219 9.06947143,22.906813 9.13724738,23.1 L7.60209546,23.1 C5.90914553,23.1 4.53673845,21.71735 4.53673845,20.0117647 L4.53673845,10.5640921 L3.10123459,11.8295327 C2.84641966,12.0541598 2.45910406,12.0281461 2.236141,11.7714293 C2.01317793,11.5147126 2.03899897,11.1245063 2.2938139,10.8998791 L12.1029563,2.25282028 C12.3341002,2.04905991 12.6792332,2.04905991 12.910377,2.25282028 L22.7195194,10.8998791 C22.9743344,11.1245063 23.0001554,11.5147126 22.7771923,11.7714293 C22.5542293,12.0281461 22.1669137,12.0541598 21.9120987,11.8295327 L20.4765949,10.5640921 L20.4765949,20.0117647 C20.4765949,21.71735 19.1041878,23.1 17.4112379,23.1 L15.876086,23.1 C15.9438619,22.906813 15.9807407,22.6989219 15.9807407,22.4823529 Z" id="Path"></path>
            </g>
        </g>
    </g>
</svg>