<?xml version="1.0" encoding="UTF-8"?>
<svg width="26px" height="26px" viewBox="0 0 26 26" version="1.1" xmlns="http://www.w3.org/2000/svg" xmlns:xlink="http://www.w3.org/1999/xlink">
    <title>Component/Tab Bar/Item/Normal Copy</title>
    <g id="Design" stroke="none" stroke-width="1" fill="none" fill-rule="evenodd">
        <g id="画板" transform="translate(-45.000000, -174.000000)" fill="#C1C7D0">
            <g id="Component/Icon/Home" transform="translate(45.000000, 174.000000)">
                <path d="M7.6486566,3.15 C8.0825116,3.15 8.4968555,3.33163871 8.79257465,3.65146702 L12.0577511,7.18284433 C12.1563242,7.28945376 12.2944388,7.35 12.4390572,7.35 L23.45,7.35 C23.7378017,7.35 23.9711111,7.58505051 23.9711111,7.875 L23.9711111,19.425 C23.9711111,21.4546465 22.3379454,23.1 20.3233333,23.1 L5.73222222,23.1 C3.71761018,23.1 2.08444444,21.4546465 2.08444444,19.425 L2.08444444,6.44381104 C2.08444444,4.62468943 3.54821025,3.15 5.35385688,3.15 L7.6486566,3.15 Z M20.8444444,4.2 C22.2211007,4.2 23.3899555,5.09634287 23.8073798,6.34134245 C23.6926016,6.31430114 23.5729585,6.3 23.45,6.3 L12.665808,6.3 L10.7241093,4.2 L20.8444444,4.2 Z" id="Combined-Shape"></path>
            </g>
        </g>
    </g>
</svg>