<?xml version="1.0" encoding="UTF-8"?>
<svg width="26px" height="26px" viewBox="0 0 26 26" version="1.1" xmlns="http://www.w3.org/2000/svg" xmlns:xlink="http://www.w3.org/1999/xlink">
    <title>Component/Tab Bar/Item/Normal Copy</title>
    <g id="Design" stroke="none" stroke-width="1" fill="none" fill-rule="evenodd">
        <g id="画板" transform="translate(-45.000000, -114.000000)" fill="#C1C7D0">
            <g id="Component/Icon/Home" transform="translate(45.000000, 114.000000)">
                <path d="M19.4213393,18.2183625 L22.634446,21.4545317 C23.5271286,22.3536217 22.1884834,23.7026381 21.2958008,22.8035482 L18.0824174,19.5671003 C14.2223884,22.7744864 8.52787619,22.529382 4.94968885,18.9244922 C1.12936298,15.0756569 1.12936298,8.83546183 4.94968885,4.9866265 C8.77001473,1.13779117 14.9639868,1.13779117 18.7843127,4.9866265 C22.3628427,8.59186153 22.6057988,14.3295523 19.4213393,18.2183625 Z M17.4454781,6.33545221 C14.3645701,3.23155275 9.36943138,3.23155275 6.28852341,6.33545221 C3.20761545,9.43935167 3.20761545,14.471767 6.28852341,17.5756665 C9.36943138,20.6795659 14.3645701,20.6795659 17.4454781,17.5756665 C20.5263861,14.471767 20.5263861,9.43935167 17.4454781,6.33545221 Z" id="Path"></path>
            </g>
        </g>
    </g>
</svg>